<svg width="320" height="256" viewBox="0 0 320 256" fill="none" xmlns="http://www.w3.org/2000/svg">
<path d="M90.25 37.131C40.4065 37.131 0 77.8165 0 128C0 178.183 40.4095 218.869 90.25 218.869C140.09 218.869 180.5 178.186 180.5 128C180.5 77.8135 140.096 37.131 90.25 37.131ZM234.375 42.454C209.452 42.454 189.253 80.7635 189.253 128.001C189.253 175.239 209.456 213.551 234.378 213.551C259.301 213.551 279.504 175.242 279.504 128.001H279.5C279.5 80.75 259.3 42.454 234.376 42.454H234.375ZM304.128 51.3645C295.365 51.3645 288.26 85.6785 288.26 128.001C288.26 170.324 295.36 204.638 304.128 204.638C312.895 204.638 320 170.315 320 128C320 85.6755 312.892 51.3645 304.129 51.3645H304.128Z" fill="#7B33E4"/>
</svg>
