<svg width="248" height="256" viewBox="0 0 248 256" fill="none" xmlns="http://www.w3.org/2000/svg">
<path d="M124 4C55.5165 4 0 59.5165 0 128C0 196.483 55.5165 252 124 252C192.483 252 248 196.483 248 128C248 59.5165 192.483 4 124 4ZM181.476 88.33C179.61 107.938 171.535 155.519 167.426 177.48C165.688 186.772 162.265 189.888 158.952 190.193C151.752 190.856 146.283 185.434 139.309 180.862C128.395 173.708 122.229 169.254 111.635 162.273C99.393 154.206 107.33 149.773 114.307 142.523C116.133 140.627 147.86 111.768 148.474 109.15C148.55 108.823 148.624 107.601 147.897 106.959C147.17 106.317 146.102 106.534 145.329 106.709C144.235 106.957 126.8 118.481 93.0255 141.279C88.0772 144.677 83.5948 146.333 79.5785 146.247C75.151 146.151 66.6345 143.743 60.303 141.685C52.5375 139.161 46.3655 137.827 46.903 133.54C47.183 131.306 50.258 129.023 56.128 126.689C92.2767 110.94 116.381 100.557 128.442 95.5395C162.878 81.216 170.033 78.728 174.697 78.645C175.723 78.628 178.017 78.882 179.503 80.0875C180.491 80.9462 181.121 82.1446 181.268 83.4455C181.519 85.0608 181.589 86.6992 181.476 88.33Z" fill="#9947EE"/>
</svg>
