<svg width="256" height="256" viewBox="0 0 256 256" fill="none" xmlns="http://www.w3.org/2000/svg">
<path d="M229.685 75.858C229.847 78.132 229.848 80.4065 229.848 82.6805C229.848 152.041 177.056 231.96 80.5685 231.96C50.8425 231.96 23.2285 223.35 0 208.407C4.2235 208.894 8.284 209.056 12.67 209.056C37.1975 209.056 59.7765 200.772 77.807 186.64C54.741 186.153 35.411 171.046 28.751 150.254C32 150.741 35.2485 151.066 38.66 151.066C43.3705 151.066 48.0815 150.416 52.467 149.28C28.4265 144.406 10.3955 123.29 10.3955 97.787V97.1375C17.38 101.036 25.5025 103.473 34.111 103.797C19.979 94.3755 10.7205 78.2945 10.7205 60.1015C10.7205 50.3555 13.319 41.4215 17.8675 33.6245C43.695 65.462 82.5175 86.2535 126.05 88.528C125.238 84.6295 124.751 80.569 124.751 76.508C124.751 47.594 148.141 24.041 177.217 24.041C192.324 24.041 205.969 30.376 215.553 40.6095C227.41 38.3355 238.781 33.9495 248.852 27.9395C244.953 40.1225 236.669 50.356 225.786 56.853C236.344 55.7165 246.578 52.792 255.999 48.7315C248.853 59.127 239.918 68.3855 229.685 75.858Z" fill="#AF55F5"/>
</svg>
